# xmcd
#
# Track frame offsets:
#	150
#	9655
#	21107
#	33037
#	44212
#	62050
#	72715
#	83875
#
# Disc length: 1287 seconds
#
# Revision: 0
# Processed by: cddbd v1.4PL0 Copyright (c) Steve Scherf et al.
# Submitted via: EasyCDDAExtractor 5.0.5.1
#
DISCID=6a050508
DTITLE=Various Artist - House of Blues Hotel
DYEAR=2002
DGENRE=Blues
TTITLE0=Mary Lou Williams - Yankee Doodle Blues
TTITLE1=Bunk Johnson - Arkansas Blues
TTITLE2=Sam Price - Boogie Woogie Nation
TTITLE3=Eddie Condon - Royal Garden Blues
TTITLE4=Wingy Mangone - Memphis Blues
TTITLE5=Miff Mole - Beale St. Blues
TTITLE6=Everett Johnson - Basin St. Blues
TTITLE7=Joe Marsala - Wabash Blues
EXTD=
EXTT0=
EXTT1=
EXTT2=
EXTT3=
EXTT4=
EXTT5=
EXTT6=
EXTT7=
PLAYORDER=
